<svg xmlns="http://www.w3.org/2000/svg" version="1.1" xmlns:xlink="http://www.w3.org/1999/xlink" width="1500" height="381" viewBox="0 0 1500 381"><svg xml:space="preserve" width="1500" height="381" data-version="2" data-id="lg_b5s6WKqe7orbY9ZJFc" viewBox="0 0 635 381" x="0" y="0"><rect width="100%" height="100%" fill="transparent"></rect><g fill="#51bcc8" opacity=".75"><path d="M200.478 48.57c.55-.477 1.1-.96 1.655-1.43-.556.47-1.105.953-1.655 1.43m201.556 59.627c-.235-4.106-5.192-5.67-8.61-7.463.176-3.773 1.178-.797.943-4.437-1.178-.049-1.884-.236-3.007.235-2.65 1.177-1.177 1.516-1.177 1.938.12 2.029 2.656-.422-.06 2.083-.767.658-2.011.658-2.947.755-1.83-2.548-1.709-3.822-5.247-3.919-1.412 1.516-3.067 3.78-3.827 6.092-1.178 3.496-.357 1.087-.236 4.86-.06.145 0 .333 0 .477-.06 2.264-.592-.428-.235 1.655 2.77-.568.652-.52 2.717-1.184 1.944-.664 7.903-2.457 9.611-2.028 4.057.936 7.48 4.154 12.075.936m14.623 8.072c2.886 2.083 5.011 3.35 8.785 2.318.525-4.63-.942-4.395-2.355-7.559.235-.38.881-.851 1.002-.942 1.063-1.412.532.562 1.063-1.841-2.771-.894-7.251-3.731-7.601-7.456 1.352-1.087.941-.43 1.938-1.087 2.18-1.419.531.748 1.829-1.654-1.117-2.174-2.355-2.554-5.071-1.468-1.178.477-4.305 2.693-4.951 3.206.41 5.766 3.828 7.982 6.255 10.626-.302 2.741-.954 2.035-.894 5.857" opacity=".75"></path><path d="M502.691 155.56a16.694 16.694 0 0 1-1.666-3.592c-3.592 1.172-3.713 1.268-7.957 1.975l-.194.253c-1.69 2.41.085 1.401-2.88 3.907-3.531 2.964-5.832 7.027-9.774 9.436-.483 4.208.35 5.15-.713 10.15-.422 1.84-2.481 6.797-4.896 6.423-.773-.145-4.015-8.175-4.776-10.39-1.304-3.774-2.77-6.57-3.713-10.91-.531-2.313-.893-6.75-1.425-8.308-2.53.375-2.408 1.987-4.836.29-1.714-1.244-.941-1.986-1.89-3.834a721.449 721.449 0 0 0-6.121-5.663c-1.594-.507-7.728.386-10.318.097-4.667-.423-5.066-.145-7.837-3.87-4.909.241-4.486 2.07-9.268-2.023-3.121-2.65-2.53-6.895-7.064-4.498-.18 3.882 1.715 4.727 3.412 6.52 1.243 1.377 2.77 2.313 3.423 4.148.06.06.35 1.793.41 2.035 4.426.29 5.483-1.841 7.898-3.629 2.36 2.216.06 2.59 3.483 4.341 2.711 1.377 2.18.568 3.955 2.784.881 2.976-6.074 11.042-8.38 12.51-1.763 1.134-2.711.47-4.305 1.786-2.349 1.987.302 1.703-3.822 3.218-4.425 1.606-8.802 5.006-13.451 5.283-1.003-2.735-1.999-5.518-3.001-8.307-2.952-9.485-2.832-5.808-5.832-10.717-1.425-2.12-.833-3.496-1.77-5.385-.651-1.413-1.653-2.023-2.541-3.774-1.352-2.686-2.94-6.883-6.062-6.46-.652 2.12 2.88 9.292 3.774 11.043.881 1.75 2.288 2.505 2.71 5.005.592 3.447-.12 3.025 1.764 5.337 3.954 4.764-.17 3.918 5.953 8.585 4.606 3.496 3.423 4.546 5.373 9.207 3 .858 11.96-3.157 13.488-1.974 1.83 3.254-2.107 8.453-3.122 11.284-3.302 9.485-9.074 9.34-13.5 16.61-2.408 3.93-3.531 4.45-5.771 9.158-2.53 5.337 5.125 20.117.53 26.306-1.001 1.412-4.243 2.264-8.307 6.556-4.316 4.68.109 3.87-1.545 11.67-1.292 1.782-2.88 1.879-4.486 3.159-.58 1.841-.109 3.302-1.111 5.566-1.063 2.735-1.244 1.28-2.783 3.496-1.111 1.75-.99 2.445-2.289 4.063-1.123 1.461-1.714 1.878-2.77 2.832-5.139 4.727-16.151 4.86-17.093 4.196-2.602-2.216-.833-2.784-1.473-5.893-.64-2.747-2.083-5.041-3.303-7.148l-.12-.218a16.525 16.525 0 0 1-1.425-2.976c-2.12-6.702-1.353-11.803-5.066-18.602-4.667-8.79 2.59-13.367 2.289-18.323-.121-1.317-.592-2.12-.713-3.158-.881-5.47-1.413-10.39-5.065-14.683-4.015-4.68-3.484-3.025-2.18-10.717 1.654-8.827-2.119-6.569-7.426-6.798-2.602-8.03-7.668-4.112-12.74-1.751-3.18 1.461-4.364-.423-7.957.097-8.03 1.086-1.714 4.534-12.437-3.967-4.486-3.544-1.473-1.75-4.135-6.182-.882-1.606-3.593-3.738-4.836-5.338-4.064-5.101.772-10.245.06-16.09-1.232-10.861-3-1.424 3.073-14.55 3.182-6.98 8.018-7.028 9.255-10.149 1.063-2.783.35-4.763 2.349-7.317 1.769-2.071 4.305-1.655 5.301-4.909 1.425-4.015-1.292-4.534-4.244-4.63-1.232-4.197-1.232-3.158-.29-7.028.531-2.18.06-3.218.531-5.386 1.183-5.421 10.439-.048 13.09-2.264 1.231-2.312 1.412-4.582 0-6.798-1.486-2.216-3.424-1.938-4.426-4.063 2.24-1.51.592-.181 2.53-.616 2.3-.52 1.998-1.183 4.715-1.69 2.421-.484 3.967-2.7 6.315-4.209 3.363-2.167 1.763-4.111 5.832-4.775 6.545-1.135 2.3-.942 3.013-7.028a61.84 61.84 0 0 0 2.88-1.232c2.059 2.687-.531 1.606 1.95 3.4.64-.375 1.413-.761 2.12-1.136-.363-2.928-1.715-2.36-2.603-5.989-3.242.52-4.413 3.254-7.015 2.264-2.53-.954-2.651-4.582-2.53-7.607.942-2.264 5.65-3.496 7.486-4.063 2.953-.99 2.53-2.977 5.259-5.663 3.532-3.544.942.048 2.65-4.535 3.895-.144 2.06-.277 4.366-1.46l.108-.049.242-.097c1.352-.615 3.121-.76 4.896-1.364 6.484-2.167 9.135-1.087 13.85.845 3.653 1.51 14.683 1.558 15.517 6.183-2.663 2.783-5.199.76-9.027.99.713 3.592 1.003 3.592 4.245 4.582.531-1.702-.23-1.038.652-2.119 1.062.23 2.119.423 3.182.616 1.074-3.64 2.3-3.121 5.904-3.544-.603-2.506-1.243-1.793.109-3.774 3.725.375.712.049 2.53 3.025 2.602-.338 5.138-3.218 8.73-3.592 2.24-.242 2.131.616 5.3.278 2.603-.278 2.482-1.22 5.078-.133.942-1.751 0-1.703 2.3-2.131 3.533-.616 6.606 1.557 10.017 2.034-2.53-3.121-4.945-2.505-1.817-7.704 3.942-.797 4.304-.229 6.013 2.747.966-.555 1.376-1.098 1.853-1.376a156.613 156.613 0 0 0-5.282-4.087l-.882-.64a145.673 145.673 0 0 0-3.822-2.735l-1.22-.846a198.175 198.175 0 0 0-4.702-3.121l-.447-.278a178.36 178.36 0 0 0-5.778-3.52 187.169 187.169 0 0 0-4.256-2.42c-.254-.134-.496-.278-.737-.411a157.657 157.657 0 0 0-4.945-2.59c-.483-.242-.966-.471-1.437-.713-1.34-.652-2.674-1.304-4.027-1.926-.422-.193-.845-.398-1.28-.591a160.02 160.02 0 0 0-5.09-2.228c-.446-.181-.905-.362-1.352-.556a169.817 169.817 0 0 0-4.1-1.618c-.53-.205-1.05-.41-1.569-.603a143.39 143.39 0 0 0-5.27-1.866l-1.015-.326a178.475 178.475 0 0 0-11.036-3.285c-.266-.06-.52-.144-.785-.205-1.818-.47-3.653-.905-5.482-1.316l-1.757-.386a176.314 176.314 0 0 0-4.39-.882c-.483-.096-.966-.193-1.449-.278a167.812 167.812 0 0 0-5.578-.917l-1.679-.242a173.258 173.258 0 0 0-11.773-1.25 52.89 52.89 0 0 0-1.376-.084 150.6 150.6 0 0 0-6.563-.326 208.45 208.45 0 0 0-5.494-.109h-.453a183.31 183.31 0 0 0-118.721 43.41l.084.169c.242.386.41.386.652 1.376-2.964.725-2.976 1.22-4.1 1.365l-2.034 1.83c2.143.736 4.969.24 7.076.156.773-1.412 1.244-2.65 2.59-3.157a5.253 5.253 0 0 1 2.071-.194c.109.7.29 1.413.47 2.12 0 .048.073.35.073.422.06-.048.109.302.157.435 3.725-2.168.592-2.216 2.59-6.134-3.121-.616-2.698-.242-4.654-2.228 1.89-2.07 5.542-2.783 8.259-2.59-.181 1.89-1.063 1.841-.35 3.447 2.119-1.328 3.592-4.86 7.015-4.208.64.471 1.413.906 2.12 1.328-1.776 1.655-4.426 1.751-6.726 2.687-1.003 10.246 3.242 1.654 1.829 8.694 2.53-.193 5.017-2.022 5.953-3.918-.936-1.238-2.294-1.238-3.067-2.699.604-1.89 1.865-3.327 3.665-4.172 1.207-.58 2.662-.893 4.304-.893 18.747.144 9.835 1.002 15.625 3.64 1.305.568 3.593.858 4.366 1.987 1.183 1.793.06 3.483 1.938 4.908 1.654 1.232 1.89-.048 4.075 2.687-.471 1.557-1.594 3.17-3.894 3.218-3.182.048-1.292-2.132-4.716-1.8.06 3.206 3.243 4.438.29 6.183-2.59 1.558-.942-.568-2.88.52-.06.047-.241.144-.302.192-.12.085-.229.23-.301.326-.35.375-.64.713-.942 1.039-4.716-1.28-3.822-.7-6.654-3.822-1.062-1.183-1.243-1.473-3.133-1.316-1.171.036-2.699.555-3.834-.483 2.3-2.88 3.423-.085 6.786-1.793.592-.278 4.305-3.158 4.897-3.822-1.003-2.264-.121-.386-1.594-1.841-3.303-3.351-4.257-2.494-8.73-2.494-2.095 2.41-3.665 5.386-5.953 6.702-1.377.797-3.013.978-5.187.048 1.003 4.063 3.593.942 3.822 5.856-1.702-.338-2.59-1.195-4.365-.567-3.773 1.413-.41 1.268-.109 2.022 0 .049 1.757.23 0 .894-1.95.712-.302-.374-4.075-2.59.531-.942 1.063-1.926 1.594-2.928a76.857 76.857 0 0 0-10.487 4.208c-4.076 2.022-7.91 4.34-10.198 6.46-.06 3.544.58 1.183.942 5.385 5.482.326 3.713 1.975 9.195 3.532 1.063.29 2.41.568 4.076.858 0 2.638-2.36 4.63-.725 7.365 3.834 2.687 3.955-2.553 4.909-5.892 12.968-2.711 6.713-6.533 10.064-13.67.507-1.062 1.22-2.203 2.252-3.422 1.002.036 5.066.47 5.953.652 2.94.519 1.353 1.231 4.534 2.638-.06 2.554-1.352 5.857 2.421 5.247 2.88-.507 2.24-2.784 5.772-3.351 1.594 3.737 1.184 5.343 1.89 9.823 8.489 3.302 4.715 5.99 3.061 12.178a64.213 64.213 0 0 0 3.302 1.473l-.18 5.295a333.994 333.994 0 0 1-9.667-2.132c1.365-3.87 3.834-3.918 5.422-7.885-3.182.568-2.952 1.558-5.247 2.264-2.058.616-3.652.194-5.82.471.06.17.121.483.157 1.039.121 1.231.713.06-.12 1.376-2.94-1.376-1.939-4.582-7.427-1.606a82.346 82.346 0 0 0 3.774 1.606c-.17 3.629-.471.894-1.244 3.303-1.878 6.182 5.138 2.36 6.967 2.035-.483 3.254-2.481 3.254-5.319 4.147-3.121.942-4.063 2.216-6.544 2.796 0-3.882-.58-.616 1.123-3.315-2.47.242-4.305 1.377-6.654 2.36l-.241.097c-3.025 1.232-3.484 1.413-3.834 5.283-2.59.81-5.59 1.715-7.426 3.592l-5.422 5.199c-.18.145-.302.277-.41.374.652 4.872 0 4.957-2.953 6.847-2.481 1.606-3.302 1.57-5.602 3.592-7.366 6.605-3.822 3.532-3.424 14.913a85.54 85.54 0 0 1-4.413-1.51c-1.123-7.547.41-5.053-5.663-6.798-6.545-1.878-5.651 1.328-8.368 1.89-3.013.664-4.486-2.735-8.845.096-2.41 1.655-4.716 2.735-5.307 5.663-.713 3.544-2.3 6.135-2.059 10.053.41 10.62 10.077 11.236 12.546 6.279 1.654-3.303 1.244-5.102 6.605-4.245.531 2.832-.29 4.909-1.002 7.076-.471 1.28-1.775 3.58-1.123 5.338 3.834 1.557 3.954-1.377 9.014 1.642.362 5.065-2.288 10.728 1.606 13.645 3 2.215 3.181.241 5.832-.23 2.952-.52 2.409 1.316 5.126 1.751 1.545-1.89.893-.712 1.89-3.025 1.769-4.015 2.24-2.119 6.423-4.582.411-.23.761-.471 1.184-.749.47.99 1.002 1.926 1.473 2.88 3.06-3.64 3.423-.097 6.955.894 1.522.422 2.602.567 3.448.58 2.565.035 2.831-1.22 6.339.035.41.194.942.326 1.425.471.06 0 .23.097.23.193.06.049.24.182.289.23.592.664.652 1.328 1.123 2.035 2.421 2.3 4.848 4.63 7.197 6.894 4.655 1.83 4.655-1.618 9.968 3.532 2.24 2.12 1.231 2.083 2.469 4.824.181.423.531.846.773 1.365.47 1.28 1.002 2.505 1.533 3.737 2.421 3.158 5.712 1.183 9.075 4.438 1.938 1.89.47 1.316 4.775 2.07 6.666 1.087 4.076.483 9.147 4.305 1.938 1.413 2.409.616 4.244 1.83 2.53 3.543 1.878 7.377-.241 10.487-6.545 9.533-4.305 7.981-4.595 15.54-.241 4.341-1.473 13.307-5.542 14.394-14.804 4.16-6.195 7.04-10.077 14.345-1.123 2.083-1.95 2.602-2.662 4.256-2.94 6.895-.882 9.207-9.606 7.656.833 1.46.302.47 1.123 1.78 2.59 4.016 3.013 7.04-2.3 8.03-4.414.846-2.53 0-2.94 4.91-1.715.711-2.482 0-3.593 1.134 1.534 2.832.109.471 2.711 2.083-.483 1.558-.833 3.061-1.244 4.57-1.002 3.69-1.304.29-1.654 4.583 1.534.712 2.59.567 3.955 2.409-.181 1.425-1.594 5.295-2.01 7.51 2.179 3.255 3.954 6.75 8.62 7.089-.06 2.722.58 2.445-1.774 3.012-1.999.471-6.243-1.413-8.03-2.36-3.061-1.655-5.893-3.822-7.958-6.931-1.17-1.763-.7-.906-1.938-2.554-2.24-2.88-1.352-4.208-1.998-6.134-.362-1.135-2.18-2.361-1.425-6.05.181-1.038 1.83-5.99-.169-5.138-2.01.797 1.534.471-1.244 1.781-.652-1.78-1.183-4.437-1.533-6.653-.713-3.725-1.594-3.87-2.01-6.134-.882-5.247 1.364-5.808-1.124-14.55-1.63-5.773-.966-19.46-2.686-26.475a11.254 11.254 0 0 0-1.027-2.795c-1.594-2.639-5.482-3.87-8.61-5.99-.168-.048-.289-.096-.35-.193-4.304-3.013-8.38-14.864-11.79-19.302-1.594-2.131-2.603-1.195-3.303-4.534-.773-3.073.41-2.554 1.413-5.114-5.247-9.617 6.786-9.485 4.304-21.046-.53-2.132-2.058-5.102-3.35-6.038-2.482 1.087-1.304 1.69-2.603 3.774-1.998-1.136-4.002-2.265-5.953-3.4-6.073-5.856-2.831-1.606-4.534-5.433-3.664-8.018-7.136-3.532-11.501-7.499-1.95-1.654-2.3-4.256-5.543-3.773-4.896.652-2.18 1.412-7.245-.954-4.316-2.035-8.79-4.39-11.803-7.124-.157-5.736 1.594-5.187-2.771-10.476a184.868 184.868 0 0 0-4.172 46c.012.447.024.906.048 1.353a196 196 0 0 0 .326 5.977l.024.241a178.19 178.19 0 0 0 .713 7.487 205 205 0 0 0 .724 5.53l.097.652a198.19 198.19 0 0 0 1.014 6.062l.218 1.123c.338 1.763.7 3.532 1.086 5.283.073.29.121.58.194.869a162.1 162.1 0 0 0 1.449 5.929l.241.881a182.79 182.79 0 0 0 1.473 5.186l.278.966a209.46 209.46 0 0 0 1.878 5.796l.193.568a213.74 213.74 0 0 0 4.6 11.948 181.834 181.834 0 0 0 2.421 5.41l.423.917c1.739 3.665 3.58 7.27 5.543 10.802l.446.796a178.51 178.51 0 0 0 6.75 11.08 176.965 176.965 0 0 0 7.1 10.04l.363.47a176.55 176.55 0 0 0 3.713 4.716l.096.12a194.715 194.715 0 0 0 8.573 9.77 190.758 190.758 0 0 0 8.954 8.862l.266.254a189.374 189.374 0 0 0 9.52 8.21l.315.255a180.244 180.244 0 0 0 10.402 7.74 187.104 187.104 0 0 0 10.632 6.822l.302.181a178.023 178.023 0 0 0 11.176 6.098l.241.12a183.552 183.552 0 0 0 82.231 19.327c101.702 0 184.144-82.442 184.144-184.144a183.58 183.58 0 0 0-2.784-31.92M323.148 70.095c.471 1.05.942 2.083 1.473 3.121.713 2.928-1.593.52.713 4.015a635.756 635.756 0 0 1 5.361 6.509c-1.123 3.254-1.062 3.544-4.244 3.821-2.24.194-4.776.81-6.484.713.652-4.196-.592-2.023.41-4.438 1.123-2.88 1.304-.712 2.288-3.495-2.18-3.255-4.474-1.039-4.365-7.644 2.077-1.841 1.775-1.552 4.848-2.602M420.02 240.34c-.942 2.602-1.769 5.76-2.65 8.55-1.184 3.918-3.955 16.427-9.075 11.477-1.714-1.618-1.654-7.04-.543-9.207 3.133-5.857.302-4.486 1.364-8.966.821-3.592 3.653-2.699 5.772-4.63 1.938-1.704 2.3-4.728 4.897-6.038 2.523 3.574 1.177 6.031.235 8.814m82.418-86.227.253 1.449.025.036c-.085-.495-.182-.99-.278-1.485" opacity=".75"></path></g><g transform="translate(48.47 106.13)"><linearGradient id="a" x1="-.04" x2="8.89" y1="0" y2="0" gradientUnits="objectBoundingBox"><stop offset="0%" stop-color="#ffa62e"></stop><stop offset="100%" stop-color="#f71b3d"></stop></linearGradient><path fill="url(#a)" d="M166.67 288.87q-.4-.21-2.69-.31-2.28-.1-5.48-.15-3.2-.05-6.91-.1-3.7-.05-7.01-.05h-9.09q-.81 7.61-.86 15.23-.05 7.62-.05 15.23 0 4.88-.1 9.65-.1 4.78-.1 9.65v3.1q0 2.28.1 4.82.1 2.54.46 4.68.35 2.13.96 2.64h-17.77q.71-.61 1.06-3.91.36-3.31.61-7.98.26-4.67.31-10.15.05-5.49.05-10.46 0-4.98-.05-8.79-.05-3.81-.05-5.33 0-4.57-.05-9.14t-.36-9.14q-6.6 0-13.1.05t-13.1.15q-1.02 0-2.59.05-1.58.05-3.3.05-1.73 0-3.3.1-1.58.11-2.49.31l-.31-10.56 85.32-.51z" paint-order="stroke" transform="translate(-124.12 -315.63)"></path></g><rect width="85.32" height="75.26" x="-42.66" y="-37.63" fill="none" rx="0" ry="0" transform="translate(48.97 106.63)"></rect><g transform="translate(105.44 119.44)"><linearGradient id="b" x1="-1.45" x2="11.35" y1="0" y2="0" gradientUnits="objectBoundingBox"><stop offset="0%" stop-color="#ffa62e"></stop><stop offset="100%" stop-color="#f71b3d"></stop></linearGradient><path fill="url(#b)" d="M175.51 314.66q2.44-2.03 5.64-3.86 3.2-1.83 6.7-3.2t7.11-2.18q3.6-.81 6.75-.81v8.73q-3.25 0-7.21 1.42-3.96 1.43-7.77 3.66-3.81 2.23-6.85 5.08-3.05 2.84-4.47 5.79 0 .71.05 2.64.05 1.93.1 4.47t.15 5.33q.1 2.79.31 5.23.2 2.44.4 4.16.21 1.73.51 2.14h-16.45q.41-.21.71-2.19t.46-4.82q.15-2.85.3-6.15.15-3.3.2-6.34.06-3.05.06-5.29v-6.8q0-2.95-.11-6.2-.1-3.25-.3-6.04-.2-2.79-.61-3.4h15.03q-.2.61-.3 1.78-.11 1.16-.21 2.48-.1 1.33-.15 2.54-.05 1.22-.05 1.83" paint-order="stroke" transform="translate(-181.1 -328.94)"></path></g><rect width="41.23" height="48.65" x="-20.61" y="-24.32" fill="none" rx="0" ry="0" transform="translate(105.94 119.94)"></rect><g transform="translate(156.18 117.34)"><linearGradient id="c" x1="-1.69" x2="6.85" y1="0" y2="0" gradientUnits="objectBoundingBox"><stop offset="0%" stop-color="#ffa62e"></stop><stop offset="100%" stop-color="#f71b3d"></stop></linearGradient><path fill="url(#c)" d="M261.43 354.47h-18.79q1.73-.5 2.14-2.28.4-1.78.5-3.2-4.57 1.42-9.24 2.13t-9.34.71q-3.05 0-7.26-.5-4.22-.51-8.03-1.93-3.81-1.43-6.5-3.96-2.69-2.54-2.69-6.71 0-3.55 2.59-6.09t6.65-4.22q4.07-1.67 9.14-2.59 5.08-.91 9.96-1.42 4.87-.51 9.14-.61 4.26-.1 6.7-.2 0-1.42.05-2.74.05-1.32.05-2.74 0-2.54-.91-4.42-.92-1.88-2.49-3.1-1.57-1.22-3.71-1.78-2.13-.56-4.47-.56-2.23 0-4.82.61-2.59.61-4.93 1.83-2.33 1.22-4.06 3.1-1.72 1.88-2.13 4.32l-12.8-1.73q1.83-4.67 5.08-7.92t7.36-5.28q4.12-2.04 8.79-3 4.67-.97 9.34-.97 4.47 0 8.69 1.12 4.21 1.12 7.51 3.4 3.3 2.29 5.28 5.84 1.98 3.56 1.98 8.43 0 5.18-.15 10.31-.15 5.13-.15 10.31v3.3q0 2.39.15 4.98.15 2.59.46 4.77.3 2.19.91 2.79m-45.4-15.74q0 1.53 1.63 2.34 1.62.81 3.81 1.27 2.18.45 4.31.56 2.14.1 3.05.1 4.27 0 8.63-.61 4.37-.61 8.43-1.93.1-1.83.16-3.66.05-1.83.05-3.55l-2.64-.1q-.92 0-3.31.05-2.38.05-5.43.2-3.05.15-6.35.51-3.3.35-6.04.96t-4.52 1.58q-1.78.96-1.78 2.28" paint-order="stroke" transform="translate(-231.82 -326.85)"></path></g><rect width="59.21" height="55.25" x="-29.61" y="-27.63" fill="none" rx="0" ry="0" transform="translate(156.68 117.84)"></rect><g transform="translate(219.8 119.38)"><linearGradient id="d" x1="-3.01" x2="6.65" y1="0" y2="0" gradientUnits="objectBoundingBox"><stop offset="0%" stop-color="#ffa62e"></stop><stop offset="100%" stop-color="#f71b3d"></stop></linearGradient><path fill="url(#d)" d="M326.33 303.69q-.81.82-2.94 4.52-2.14 3.71-4.88 8.94-2.74 5.23-5.64 11.22-2.89 6-5.33 11.33t-4.01 9.24q-1.57 3.91-1.57 4.93l.1.2h-13v-.2q-.1-1.12-1.68-4.98-1.57-3.86-4.01-9.09-2.44-5.23-5.38-11.17-2.95-5.94-5.64-11.12-2.69-5.18-4.82-8.99-2.14-3.81-2.95-4.83h17.16q3.15 8.23 6.2 16.3 3.05 8.08 7.11 15.8l10.36-21.33q1.22-2.64 2.54-5.28t2.03-5.49z" paint-order="stroke" transform="translate(-295.45 -328.88)"></path></g><rect width="61.75" height="50.38" x="-30.88" y="-25.19" fill="none" rx="0" ry="0" transform="translate(220.3 119.88)"></rect><g transform="translate(279.52 118.67)"><linearGradient id="e" x1="-3.61" x2="4.99" y1="0" y2="0" gradientUnits="objectBoundingBox"><stop offset="0%" stop-color="#ffa62e"></stop><stop offset="100%" stop-color="#f71b3d"></stop></linearGradient><path fill="url(#e)" d="M357.61 354.78q-4.97 0-10.56-1.32-5.59-1.32-10.31-4.11-4.72-2.8-7.82-7.06-3.1-4.27-3.1-10.16 0-7.21 2.85-12.9 2.84-5.69 7.61-9.6 4.78-3.91 11.07-5.99 6.3-2.08 13.21-2.08 5.48 0 9.75 1.78 4.26 1.78 7.11 4.97 2.84 3.2 4.31 7.57 1.48 4.37 1.48 9.65 0 5.08-1.53 9.75h-42.35q1.02 3.05 3.2 4.98 2.18 1.93 4.98 2.99 2.79 1.07 5.89 1.47 3.09.41 5.84.41 1.72 0 4.62-.25 2.89-.26 5.94-.82 3.05-.55 5.74-1.37 2.69-.81 4.01-2.03l4.98 8.74q-6.71 2.54-13.21 3.96-6.5 1.42-13.71 1.42m0-43.67q-3.05 0-6.04 1.22-3 1.21-5.43 3.2-2.44 1.98-4.27 4.67-1.83 2.69-2.64 5.53h29.05q.3-3.04.05-5.74-.26-2.69-1.37-4.67-1.12-1.98-3.36-3.1-2.23-1.11-5.99-1.11" paint-order="stroke" transform="translate(-355.18 -328.17)"></path></g><rect width="58.71" height="53.22" x="-29.36" y="-26.61" fill="none" rx="0" ry="0" transform="translate(280.02 119.17)"></rect><g transform="translate(328.73 107.14)"><linearGradient id="f" x1="-9.63" x2="9.43" y1="0" y2="0" gradientUnits="objectBoundingBox"><stop offset="0%" stop-color="#ffa62e"></stop><stop offset="100%" stop-color="#f71b3d"></stop></linearGradient><path fill="url(#f)" d="M393.87 354.17q.51-.81 1.02-4.93.5-4.11.86-9.85.35-5.74.66-12.39.3-6.65.56-12.64.25-5.99.35-10.57.1-4.57.1-6.19v-3.71q0-2.79-.15-5.94-.15-3.15-.56-5.74-.4-2.59-1.22-3.09l19.4.2q-.5.1-.76 1.22-.25 1.11-.35 1.52-1.12 5.08-1.43 10.31-.3 5.23-.61 10.41-.5 8.63-.76 17.06-.25 8.43-.25 17.06v3.41q0 2.59.1 5.43t.31 5.33q.2 2.49.71 3.1z" paint-order="stroke" transform="translate(-404.38 -316.64)"></path></g><rect width="21.02" height="75.05" x="-10.51" y="-37.52" fill="none" rx="0" ry="0" transform="translate(329.23 107.64)"></rect><g transform="translate(374.08 106.13)"><linearGradient id="g" x1="-5.26" x2="3.67" y1="0" y2="0" gradientUnits="objectBoundingBox"><stop offset="0%" stop-color="#ffa62e"></stop><stop offset="100%" stop-color="#f71b3d"></stop></linearGradient><path fill="url(#g)" d="M492.28 288.87q-.4-.21-2.69-.31-2.28-.1-5.48-.15-3.2-.05-6.91-.1t-7.01-.05h-9.09q-.81 7.61-.86 15.23-.05 7.62-.05 15.23 0 4.88-.1 9.65-.1 4.78-.1 9.65v3.1q0 2.28.1 4.82.1 2.54.46 4.68.35 2.13.96 2.64h-17.77q.71-.61 1.06-3.91.36-3.31.61-7.98.26-4.67.31-10.15.05-5.49.05-10.46 0-4.98-.05-8.79-.05-3.81-.05-5.33 0-4.57-.05-9.14-.06-4.57-.36-9.14-6.6 0-13.1.05t-13.1.15q-1.02 0-2.59.05-1.58.05-3.3.05-1.73 0-3.3.1-1.58.11-2.49.31l-.31-10.56 85.32-.51z" paint-order="stroke" transform="translate(-449.73 -315.63)"></path></g><rect width="85.32" height="75.26" x="-42.66" y="-37.63" fill="none" rx="0" ry="0" transform="translate(374.58 106.63)"></rect><g transform="translate(420.24 108.11)"><linearGradient id="h" x1="-13.49" x2="6.9" y1="0" y2="0" gradientUnits="objectBoundingBox"><stop offset="0%" stop-color="#ffa62e"></stop><stop offset="100%" stop-color="#f71b3d"></stop></linearGradient><path fill="url(#h)" d="m487.71 305.72 17.88.11q-.51.1-.76.86-.26.76-.46 1.17-.71 2.54-1.07 6.14-.35 3.61-.5 7.52-.16 3.91-.21 7.56-.05 3.66-.05 6.4v3.71q0 2.79.15 5.94.16 3.15.46 5.74.31 2.59.91 3.2h-17.97q.51-.71 1.01-3.35.51-2.64.87-6.3.35-3.66.66-7.87.3-4.22.56-8.02.25-3.81.35-6.81.1-3 .1-4.11v-2.44q0-1.83-.2-3.81t-.61-3.65q-.41-1.68-1.12-1.99m8.84-24.57q1.32 0 2.94.4 1.63.41 3 1.17t2.29 2.03q.91 1.27.91 2.9 0 1.62-.91 2.84-.92 1.22-2.29 1.98t-3 1.17q-1.62.4-2.94.4-1.42 0-3-.4-1.57-.41-2.94-1.17-1.37-.76-2.29-1.98-.91-1.22-.91-2.84 0-1.63.91-2.9.92-1.27 2.29-2.03 1.37-.76 2.94-1.17 1.58-.4 3-.4" paint-order="stroke" transform="translate(-495.89 -317.61)"></path></g><rect width="19.6" height="72.92" x="-9.8" y="-36.46" fill="none" rx="0" ry="0" transform="translate(420.74 108.61)"></rect><g transform="translate(486.66 119.38)"><linearGradient id="i" x1="-3.98" x2=".89" y1="0" y2="0" gradientUnits="objectBoundingBox"><stop offset="0%" stop-color="#ffa62e"></stop><stop offset="100%" stop-color="#f71b3d"></stop></linearGradient><path fill="url(#i)" d="M609.08 353.26h-17.77q1.01-1.83 1.67-5.18.66-3.36 1.02-7.01.35-3.66.51-7.16.15-3.51.15-5.64 0-2.64-.46-5.23-.46-2.59-1.57-4.57-1.12-1.98-3.15-3.2-2.03-1.22-5.18-1.22-3.86 0-7.31 2.03-3.46 2.04-6.1 4.68.31 2.33.31 4.46 0 4.57-.1 9.04-.11 4.47-.11 9.04 0 2.54.06 5.03.05 2.49.45 4.93h-17.77q1.01-1.83 1.67-5.18.66-3.36 1.07-7.01.41-3.66.51-7.16.1-3.51.1-5.64 0-2.64-.46-5.23-.45-2.59-1.57-4.57-1.12-1.98-3.15-3.2-2.03-1.22-5.18-1.22-4.06 0-7.67 2.24-3.6 2.23-6.24 5.18-.21 4.67-.31 9.34t-.1 9.45v2.79q0 2.08.1 4.42.1 2.33.31 4.31.2 1.98.71 2.39h-17.98q.41-.51.81-2.89.41-2.39.71-5.69.31-3.3.51-7.11.21-3.81.36-7.26.15-3.46.2-6.1.05-2.64.05-3.65 0-.82-.05-3.41-.05-2.59-.25-5.38-.21-2.79-.66-5.13-.46-2.33-1.37-2.64l17.77.1q-.2 1.12-.2 2.39t-.11 2.49q3.76-2.74 8.38-4.52 4.62-1.78 9.4-1.78 5.08 0 9.6 2.08 4.52 2.09 7.26 6.55 3.96-3.75 9.6-6.19 5.63-2.44 11.12-2.44 4.87 0 8.63 1.58 3.76 1.57 6.3 4.46 2.54 2.9 3.86 6.86 1.32 3.96 1.32 8.73 0 4.57-.16 9.04-.15 4.47-.15 9.04 0 2.54.1 5.03t.51 4.93" paint-order="stroke" transform="translate(-562.31 -328.88)"></path></g><rect width="93.54" height="50.58" x="-46.77" y="-25.29" fill="none" rx="0" ry="0" transform="translate(487.16 119.88)"></rect><g transform="translate(571.62 118.67)"><linearGradient id="j" x1="-8.14" x2=".46" y1="0" y2="0" gradientUnits="objectBoundingBox"><stop offset="0%" stop-color="#ffa62e"></stop><stop offset="100%" stop-color="#f71b3d"></stop></linearGradient><path fill="url(#j)" d="M649.71 354.78q-4.98 0-10.57-1.32-5.58-1.32-10.31-4.11-4.72-2.8-7.82-7.06-3.09-4.27-3.09-10.16 0-7.21 2.84-12.9t7.62-9.6q4.77-3.91 11.07-5.99 6.29-2.08 13.2-2.08 5.49 0 9.75 1.78 4.27 1.78 7.11 4.97 2.84 3.2 4.32 7.57 1.47 4.37 1.47 9.65 0 5.08-1.52 9.75h-42.36q1.02 3.05 3.2 4.98 2.19 1.93 4.98 2.99 2.79 1.07 5.89 1.47 3.1.41 5.84.41 1.73 0 4.62-.25 2.9-.26 5.94-.82 3.05-.55 5.74-1.37 2.69-.81 4.01-2.03l4.98 8.74q-6.7 2.54-13.2 3.96-6.5 1.42-13.71 1.42m0-43.67q-3.05 0-6.05 1.22-2.99 1.21-5.43 3.2-2.44 1.98-4.27 4.67-1.82 2.69-2.64 5.53h29.05q.3-3.04.05-5.74-.25-2.69-1.37-4.67t-3.35-3.1q-2.24-1.11-5.99-1.11" paint-order="stroke" transform="translate(-647.27 -328.17)"></path></g><rect width="58.7" height="53.22" x="-29.35" y="-26.61" fill="none" rx="0" ry="0" transform="translate(572.12 119.17)"></rect><g transform="translate(618.24 107.04)"><linearGradient id="k" x1="-20.87" x2=".06" y1="0" y2="0" gradientUnits="objectBoundingBox"><stop offset="0%" stop-color="#ffa62e"></stop><stop offset="100%" stop-color="#f71b3d"></stop></linearGradient><path fill="url(#k)" d="M700.69 349.6q0 1.42-.91 2.39-.92.96-2.19 1.57-1.27.61-2.74.91-1.47.31-2.49.31-1.12 0-2.59-.31-1.47-.3-2.74-.91-1.27-.61-2.18-1.57-.92-.97-.92-2.39 0-1.42.92-2.39.91-.96 2.18-1.57 1.27-.61 2.74-.92 1.47-.3 2.59-.3 1.02 0 2.49.3 1.47.31 2.74.92 1.27.61 2.19 1.57.91.97.91 2.39m.3-11.98h-16.45q.51-.61.92-3.86.4-3.25.76-7.77.35-4.52.66-9.8.3-5.29.51-10.06.2-4.77.3-8.38.1-3.6.1-4.92v-2.95q0-2.23-.15-4.72-.15-2.49-.56-4.52-.41-2.03-1.12-2.34l17.88.1q-.51.11-.76.97-.26.86-.36 1.17-1.12 4.47-1.67 10.1-.56 5.64-.77 11.48-.2 5.84-.25 11.53-.05 5.68-.05 10.25v2.75q0 2.03.1 4.31.1 2.29.31 4.22.2 1.93.6 2.44" paint-order="stroke" transform="translate(-693.88 -316.54)"></path></g><rect width="19.91" height="76.48" x="-9.96" y="-38.24" fill="none" rx="0" ry="0" transform="translate(618.74 107.54)"></rect><path fill="#bfffff" d="M292.683 223.096c-.498 2.85-4.567 13.059-34.328 11.047.746-2.021 1.313-6.883 1.37-7.355 19.475 1.227 23.012-5.972 23.538-8.074-10.336-4.381-22.79-8.066-36.914-9.91 3.727-4.918 24.252-33.033 23.458-35.193-.493-2.318-8.016-2.56-11.128-3.07a4397.086 4397.086 0 0 1-21.051 19.966c-.48-.118-.996-.246-1.287-.281-6.568-1.387-12.151-1.134-12.5.557-.33 1.153 5.889 3.64 8.45 4.601-5.103 4.874-9.372 8.924-11.045 10.404-28.666-3.431-73.688-8.773-88.866-10.636-1.297-1.06-6.052-4.625-11.489-8.763 2.992-3.036 14.212-14.445 14.38-15.816.193-1.569-10.107-2.833-11.72-2.35-1.363.412-11.237 7.126-14.401 9.278-4.388-3.434-7.633-6.106-7.582-6.522.14-1.134 2.366-3.119.995-4.882-2.451-3.282-16.144-1.982-16.144-1.982-.112 1.578 5.14 9.49 11.816 18.896l-46.446 23.43s8.273 2.414 12.239 2.433c3.605.029 38.39-12.427 42.828-14.024a2515.282 2227 6.998 0 0 18.794 25.077l45.106 16.722 1.75.322c-2.03.859-11.52 5.008-23.978 10.453a7.508 6.648 6.998 0 0-1.545-.363c-10.677-2.206-27.486-2.851-28.09-.168-.602 2.742 1.632 5.137 12.27 7.384l1.127.138c-26.76 11.729-57.573 25.091-61.623 26.942 3.118 1.097 11.209 4.233 15.86 2.888 3.673-1.232 7.185-2.63 120.812-41.135l26.956 2.968c80.911 9.932 84.164.254 84.494-2.433-.07-2.653-9.524-12.061-26.106-20.55m-121.279 5.474-.469-3.825 2.254.277.498 3.828zm5.116.628-.442-3.822 2.253.277.445 3.822zm5.913.726-.526-3.832 2.292.282.564 3.836zm5.496.675-.475-3.826 2.23.274.59 3.84zm6.094.748-.413-3.818 2.224.273.457 3.823zm5.401.663-.59-3.84 2.342.288.483 3.826zm5.478.673-.566-3.837 2.336.287.534 3.833zm5.75.706-.591-3.84 2.354.29.463 3.823zm5.487.673-.585-3.838 2.343.287.525 3.832zm6.008.738-.591-3.84 2.354.29.49 3.827zm5.225.642-.42-3.819 2.22.273.555 3.835zm236.467 59.422-5.758-12.258 3.343-1.672 4.086 8.915 16.902-7.615 1.486 3.343zm40.464-22.388 1.57 3.367-12.793 5.965-1.57-3.367zm15.997-3.615-1.485-3.343 5.943-2.786-12.63-27.302 3.344-1.671 14.115 30.83zm-39.746-69.648-1.485-3.343 15.6-7.244 2.23 4.83-3.343 1.67-.558-1.485zm-47.732 28.045-3.9-8.358 5.757-2.6 1.486 3.343-2.414 1.114 2.414 4.83zm8.915-22.845-3.529-.928 4.086-15.416 29.903 8.358-.929 3.529-26.374-7.244z"></path><path fill="#bfffff" d="m449.909 276.847-29.717-8.172 16.902-61.291 3.529.929-15.788 57.762 26.003 7.243zm40.303 11.144-20.616-5.758.929-3.529 17.087 4.643 2.043-7.8 3.53 1.114z"></path><path fill="#bfffff" d="m450.838 285.39-14.487-82.278 71.32-12.444 14.487 82.279zm-10.215-79.306 13.186 75.035 64.077-11.33-13.187-75.035z"></path><path fill="#bfffff" d="m454.367 262.174-9.473-52.933 56.648-10.03 9.286 53.12zm-5.2-49.961 7.985 45.69 49.405-8.73-7.987-45.69zm84.42-42.118a4.165 4.701 0 0 1-4.165 4.702H516.56a4.165 4.701 0 0 1 0-9.403h12.863a4.165 4.701 0 0 1 4.165 4.701"></path><path fill="#bfffff" d="M550.826 169.916h-55.671c-5.59 0-10.122 5.116-10.122 11.426v34.513c0 6.31 4.532 11.426 10.122 11.426h55.671c5.59 0 10.122-5.116 10.122-11.426v-34.513c0-6.31-4.532-11.426-10.122-11.426m-57.358 11.04a1.213 1.37 0 1 1 0-2.74 1.213 1.37 0 0 1 0 2.74m4.323 0a1.213 1.37 0 1 1 0-2.74 1.213 1.37 0 0 1 0 2.74m25.2 31.924c-6.988 0-12.653-6.394-12.653-14.282 0-7.887 5.665-14.281 12.653-14.281 6.987 0 12.652 6.394 12.652 14.281 0 7.888-5.665 14.282-12.652 14.282m29.522-30.943h-11.914v-7.141h11.914z"></path><circle r="11.75" fill="#bfffff" transform="matrix(.8435 0 0 .9521 522.99 198.6)"></circle></svg></svg>